<?xml version="1.0" standalone="no"?>
<!DOCTYPE svg PUBLIC "-//W3C//DTD SVG 20010904//EN"
 "http://www.w3.org/TR/2001/REC-SVG-20010904/DTD/svg10.dtd">
<svg version="1.0" xmlns="http://www.w3.org/2000/svg"
 width="500.000000pt" height="500.000000pt" viewBox="0 0 500.000000 500.000000"
 preserveAspectRatio="xMidYMid meet">
<metadata>
Created by potrace 1.14, written by Peter Selinger 2001-2017
</metadata>
<g transform="translate(0.000000,500.000000) scale(0.100000,-0.100000)"
fill="#000000" stroke="none">
<path d="M2437 4774 c-2 -3 -17 -7 -33 -10 -38 -7 -101 -44 -141 -84 -88 -87
-115 -233 -63 -345 28 -61 97 -139 131 -150 17 -6 19 -17 19 -101 l0 -94 -250
0 -250 0 0 24 c0 23 -2 24 -72 23 -50 -2 -73 -6 -74 -14 -1 -7 -2 -17 -3 -22
0 -4 -26 -11 -57 -15 -31 -4 -70 -14 -85 -23 -39 -23 -63 -75 -54 -120 13 -73
46 -98 140 -109 57 -6 56 -6 59 -31 3 -15 13 -18 74 -19 70 -2 72 -1 72 22 0
18 6 24 23 25 85 2 470 -1 473 -3 1 -2 4 -91 5 -198 2 -247 8 -268 76 -304 46
-23 98 -20 141 9 20 14 33 25 28 25 -5 0 -1 9 9 20 16 17 18 46 23 232 2 117
6 214 7 216 2 2 392 4 488 3 22 -1 27 -6 27 -25 0 -23 2 -23 78 -22 65 1 77 4
77 18 0 22 4 25 43 31 51 8 95 39 116 81 36 74 -10 149 -106 171 -41 9 -53 16
-53 31 0 17 -9 19 -77 22 -78 3 -78 3 -78 -23 l0 -25 -260 0 -260 0 0 95 c0
90 1 96 23 104 48 19 123 119 141 189 21 81 11 156 -31 233 -41 76 -118 137
-197 156 -32 7 -123 12 -129 7z m109 -190 c102 -49 107 -185 9 -243 -65 -38
-129 -23 -178 43 -48 63 -28 152 45 196 40 24 79 25 124 4z"/>
<path d="M1195 2986 c-79 -19 -126 -46 -185 -106 -66 -66 -98 -127 -112 -216
-40 -237 143 -456 381 -456 124 0 206 35 292 123 150 153 146 398 -9 553 -41
41 -129 92 -177 102 -50 11 -144 11 -190 0z m199 -125 c212 -94 234 -367 41
-496 -58 -39 -63 -40 -145 -40 -69 0 -93 4 -127 22 -167 90 -208 304 -85 444
76 87 212 117 316 70z"/>
<path d="M2072 2984 c-185 -38 -303 -200 -296 -404 5 -150 83 -274 211 -335
152 -72 331 -33 447 97 56 61 83 120 92 196 l6 57 -188 -2 c-104 -1 -198 -2
-210 -3 -18 0 -21 -7 -23 -55 l-2 -55 146 0 146 0 -15 -28 c-53 -102 -182
-157 -298 -126 -203 53 -272 335 -116 480 50 47 95 66 170 72 111 8 208 -40
246 -121 l20 -42 60 0 59 -1 -8 30 c-31 108 -117 195 -223 228 -76 23 -151 27
-224 12z"/>
<path d="M3766 2986 c-8 -6 -36 -65 -61 -131 -26 -66 -51 -129 -56 -140 -26
-59 -189 -479 -189 -487 0 -5 26 -8 57 -6 l57 3 35 93 c41 105 18 93 191 93
176 0 152 12 191 -93 l34 -93 58 -3 c31 -2 57 1 57 6 0 6 -67 178 -149 383
-146 368 -149 374 -180 380 -17 4 -37 2 -45 -5z m140 -464 c-5 -8 -203 -8
-211 0 -5 4 20 72 97 268 9 22 15 10 64 -118 30 -79 52 -147 50 -150z"/>
<path d="M2689 2985 c-1 0 -3 -172 -3 -382 l-2 -383 52 0 c33 0 53 5 56 13 2
6 3 125 3 264 -1 138 2 250 5 248 4 -2 48 -67 100 -145 86 -130 95 -140 124
-140 29 0 38 10 126 141 52 77 96 142 99 144 4 2 6 -116 6 -261 l-1 -265 55 3
56 3 0 375 0 375 -30 5 c-17 3 -37 4 -46 2 -9 -2 -70 -84 -135 -182 -66 -98
-123 -177 -129 -176 -5 1 -62 80 -127 176 -65 95 -120 175 -122 178 -4 3 -52
7 -87 7z"/>
<path d="M828 2553 c-95 -103 -194 -290 -214 -403 -3 -14 -7 -32 -9 -40 -27
-92 -20 -357 12 -440 3 -8 7 -22 8 -30 1 -8 12 -42 25 -75 93 -252 241 -434
475 -583 65 -41 345 -151 345 -135 0 3 7 0 15 -7 8 -7 15 -10 15 -7 0 3 25 -3
56 -13 31 -11 60 -17 64 -15 5 3 11 1 14 -4 3 -5 22 -12 42 -16 64 -12 357
-111 424 -144 69 -34 82 -41 145 -82 84 -55 200 -196 224 -271 15 -46 27 -48
36 -8 17 75 146 228 250 295 77 49 188 98 310 138 103 33 247 77 270 81 6 1
37 10 70 20 33 10 67 20 75 21 8 2 42 13 75 25 33 12 71 24 85 26 28 5 68 22
155 66 85 43 114 66 121 93 6 23 28 37 67 40 44 4 199 185 270 316 39 70 94
203 101 244 3 14 12 60 22 101 22 100 15 306 -14 414 -26 95 -95 244 -135 288
-10 10 -17 23 -17 29 0 6 -3 13 -7 15 -5 2 -24 21 -42 43 -19 22 -31 31 -27
20 57 -142 69 -195 68 -295 -1 -85 -6 -115 -31 -173 -35 -81 -104 -153 -196
-203 -103 -55 -205 -117 -215 -129 -7 -8 -17 -15 -22 -15 -14 0 -128 -115
-128 -128 0 -18 69 -32 191 -38 137 -7 210 -25 237 -59 28 -35 19 -56 -52
-128 -89 -91 -210 -165 -352 -217 -99 -37 -253 -79 -312 -85 -81 -9 -226 -10
-240 -1 -7 4 -12 3 -12 -3 0 -6 -6 -8 -12 -6 -7 2 -29 6 -48 9 -151 21 -270
134 -324 306 -33 102 -38 156 -50 476 -4 112 -15 139 -72 174 -60 38 -139 25
-192 -33 -25 -26 -23 -11 -38 -297 -7 -138 -10 -178 -19 -230 -10 -55 -36
-144 -47 -157 -6 -7 -7 -13 -4 -13 10 0 -47 -80 -89 -124 -43 -45 -149 -96
-214 -103 -25 -3 -48 -7 -50 -9 -2 -2 -10 1 -18 7 -7 6 -13 8 -13 3 0 -9 -94
-9 -206 -1 -117 9 -385 96 -502 164 -100 57 -207 151 -237 207 -17 32 -17 34
1 59 28 40 68 49 254 61 105 7 158 16 170 31 14 17 -53 92 -128 143 -56 38
-166 103 -247 146 -57 30 -147 123 -172 177 -59 127 -50 317 22 461 13 26 23
48 21 48 -1 0 -14 -12 -28 -27z"/>
</g>
</svg>
